<svg xmlns="http://www.w3.org/2000/svg" viewBox="0 0 108 108">
  <rect width="108" height="108" rx="24" fill="#F80032" />
  <g opacity="0.14">
    <path d="M18 20h72v68H18z" fill="#fff" />
  </g>

  <!-- Simple delivery mark (keeps brand red, with Android-ish neon green detail) -->
  <g transform="translate(22 26)">
    <path
      d="M10 38h34c3.3 0 6 2.7 6 6v4H6v-4c0-3.3 2.7-6 6-6z"
      fill="#fff"
      opacity="0.92"
    />
    <path d="M50 36h8l6 8v4H50z" fill="#fff" opacity="0.92" />
    <path d="M12 34h38v6H12z" fill="#fff" opacity="0.92" />
    <circle cx="18" cy="52" r="6" fill="#22c55e" />
    <circle cx="50" cy="52" r="6" fill="#22c55e" />
    <path
      d="M22 16h18c3 0 5.5 2.5 5.5 5.5S43 27 40 27H22c-3 0-5.5-2.5-5.5-5.5S19 16 22 16z"
      fill="#0b0f16"
      opacity="0.85"
    />
    <path
      d="M24 20h14"
      stroke="#22c55e"
      stroke-width="3"
      stroke-linecap="round"
      opacity="0.95"
    />
  </g>
</svg>
