<svg xmlns="http://www.w3.org/2000/svg" viewBox="0 0 108 108">
  <rect width="108" height="108" rx="24" fill="#008577" />
  <g opacity="0.18">
    <path d="M9 0V108" stroke="#fff" stroke-width="0.8" />
    <path d="M19 0V108" stroke="#fff" stroke-width="0.8" />
    <path d="M29 0V108" stroke="#fff" stroke-width="0.8" />
    <path d="M39 0V108" stroke="#fff" stroke-width="0.8" />
    <path d="M49 0V108" stroke="#fff" stroke-width="0.8" />
    <path d="M59 0V108" stroke="#fff" stroke-width="0.8" />
    <path d="M69 0V108" stroke="#fff" stroke-width="0.8" />
    <path d="M79 0V108" stroke="#fff" stroke-width="0.8" />
    <path d="M89 0V108" stroke="#fff" stroke-width="0.8" />
    <path d="M99 0V108" stroke="#fff" stroke-width="0.8" />
    <path d="M0 9H108" stroke="#fff" stroke-width="0.8" />
    <path d="M0 19H108" stroke="#fff" stroke-width="0.8" />
    <path d="M0 29H108" stroke="#fff" stroke-width="0.8" />
    <path d="M0 39H108" stroke="#fff" stroke-width="0.8" />
    <path d="M0 49H108" stroke="#fff" stroke-width="0.8" />
    <path d="M0 59H108" stroke="#fff" stroke-width="0.8" />
    <path d="M0 69H108" stroke="#fff" stroke-width="0.8" />
    <path d="M0 79H108" stroke="#fff" stroke-width="0.8" />
    <path d="M0 89H108" stroke="#fff" stroke-width="0.8" />
    <path d="M0 99H108" stroke="#fff" stroke-width="0.8" />
  </g>

  <!-- Foreground converted from Android VectorDrawable -->
  <g transform="translate(20.841267 19.98) scale(0.86126584)">
    <path
      d="M48.9138 33.2445C47.8963 16.4702 41.5823 8.8336 39.1188 6.4642 38.5716 5.9373 37.7035 5.9419 37.1602 6.4721 34.7214 8.8633 28.4959 16.5533 27.6712 33.3397c0 0-.5179 9.9513 4.2485 19.5408l6.487-.0292 6.487-.0292C49.5461 43.1933 48.9138 33.2445 48.9138 33.2445Z"
      fill="#fff"
    />
    <path d="m42.5753 57.5317-8.5284-.0411.5056-3.3538 7.4776.0452z" fill="#fff" />
    <path
      d="m30.1873 38.1079-6.4798 8.139c-.8445 1.062-1.2175 2.4258-1.0194 3.7693l1.9395 13.4058c.0956.657.7665 1.07 1.397.8545.3949-.1335.6726-.4815.7176-.8918.2796-2.6652 1.6678-12.4909 7.008-15.346z"
      fill="#22d9b7"
    />
    <path
      d="m46.5974 38.0248 6.5704 8.0823c.8597 1.0561 1.2407 2.4141 1.065 3.7577L52.449 63.2856c-.0869.6564-.752 1.0735-1.3865.8651-.3958-.1307-.6809-.474-.7267-.8874-.3111-2.6644-1.8068-12.4731-7.1844-15.2811z"
      fill="#22d9b7"
    />
    <path
      d="m39.233 65.405-1.3846.0051c-.3085.0023-.5631-.2454-.5714-.5534l-.6394-24.0239c-.0094-.3905.3046-.7157.6984-.7158l2.1155-.0087c.3938-.0001.7111.3199.7039.7079l-.3627 24.0271c-.0014.315-.2512.5595-.5597.5617z"
      fill="#22d9b7"
    />
    <path
      d="m38.261 34.0488c3.0416 0 5.5072-2.4541 5.5072-5.4815 0-3.0273-2.4656-5.4815-5.5072-5.4815-3.0415 0-5.5072 2.4542-5.5072 5.4815 0 3.0274 2.4657 5.4815 5.5072 5.4815z"
      fill="#4d1d78"
    />
    <path
      d="m38.2611 30.9893c1.344 0 2.4334-1.0844 2.4334-2.4221 0-1.3376-1.0894-2.422-2.4334-2.422-1.344 0-2.4335 1.0844-2.4335 2.422 0 1.3377 1.0895 2.4221 2.4335 2.4221z"
      fill="#fff"
    />
  </g>
</svg>
